#!OML:ASF I:\Actors\actors\Patient Classification 2\Patient 1\Session 1\actor1.ASF
:FULLY-SPECIFIED
:DEGREES
508
root -0.654756 18.6212 6.67435 2.1793 -0.756563 -4.46932
lowerback 0.570159 0.0332849 1.25712
upperback -2.78545 0.112381 1.44003
thorax -3.18064 0.0438748 0.771656
lowerneck -10.4124 -0.658812 0.651454
upperneck 28.2008 -1.32809 0.786568
head 10.7725 -0.450787 0.00799741
rclavicle 5.31749e-015 1.19271e-015
rhumerus -53.8521 -5.87858 -82.5945
rradius 43.7429
rwrist -3.68139
rhand -8.34656 -43.0327
rfingers 7.12502
rthumb 17.5754 -72.2583
lclavicle 5.31749e-015 1.19271e-015
lhumerus -44.83 1.58326 90.0311
lradius 39.1456
lwrist -9.91806
lhand -8.52585 -25.3127
lfingers 7.12502
lthumb 17.4028 3.92823
rfemur 0 0 0
rtibia 0
rfoot 0 0
rtoes 0
lfemur -3.72479 -6.95884 -10.3903
ltibia 24.1264
lfoot -26.0922 12.6473
ltoes -55.5734
509
root -0.658442 18.6214 6.66441 2.19216 -0.807889 -4.43444
lowerback 0.547454 0.0115922 1.22491
upperback -2.76037 0.0812886 1.42669
thorax -3.14174 0.0291209 0.776909
lowerneck -10.4783 -0.613837 0.738005
upperneck 28.1633 -1.26093 0.706852
head 10.7702 -0.4206 -0.0277216
rclavicle -3.40419e-015 1.59028e-015
rhumerus -53.897 -5.55934 -82.837
rradius 43.9519
rwrist -3.64875
rhand -8.22677 -43.186
rfingers 7.12502
rthumb 17.6906 -72.4013
lclavicle -3.40419e-015 1.59028e-015
lhumerus -44.7834 1.34427 89.8986
lradius 39.057
lwrist -9.63449
lhand -8.6737 -25.3379
lfingers 7.12502
lthumb 17.2605 3.91559
rfemur 0 0 0
rtibia 0
rfoot 0 0
rtoes 0
lfemur -3.73572 -6.97281 -10.4255
ltibia 24.0928
lfoot -26.0789 12.7395
ltoes -55.626
510
root -0.660376 18.622 6.65456 2.22306 -0.872283 -4.40759
lowerback 0.508452 -0.00352865 1.22191
upperback -2.74329 0.0592745 1.4074
thorax -3.10193 0.0180507 0.759375
lowerneck -10.4967 -0.557263 0.765875
upperneck 28.0948 -1.19531 0.740613
head 10.7483 -0.384257 -0.0124173
rclavicle -3.85145e-015 1.98785e-015
rhumerus -53.8781 -5.34948 -83.0104
rradius 44.1235
rwrist -3.68738
rhand -8.16348 -43.0878
rfingers 7.12502
rthumb 17.7515 -72.2975
lclavicle -3.85145e-015 1.98785e-015
lhumerus -44.6942 1.3395 89.6233
lradius 38.8942
lwrist -9.67172
lhand -8.84095 -25.372
lfingers 7.12502
lthumb 17.0995 3.89555
rfemur 0 0 0
rtibia 0
rfoot 0 0
rtoes 0
lfemur -3.76648 -7.03115 -10.4676
ltibia 24.0635
lfoot -26.1019 12.8996
ltoes -55.672
511
root -0.662151 18.6225 6.6443 2.24104 -0.961959 -4.41385
lowerback 0.50461 -0.0020229 1.24983
upperback -2.72908 0.0613537 1.40198
thorax -3.08508 0.0183544 0.738044
lowerneck -10.5568 -0.520215 0.789138
upperneck 28.0621 -1.14993 0.747054
head 10.7479 -0.36044 -0.00880519
rclavicle -1.03368e-014 2.10712e-014
rhumerus -53.8234 -5.20958 -83.1081
rradius 44.3023
rwrist -3.75724
rhand -8.06324 -42.9089
rfingers 7.12502
rthumb 17.848 -72.1099
lclavicle -1.03368e-014 2.10712e-014
lhumerus -44.5791 1.53688 89.2618
lradius 38.7497
lwrist -9.90985
lhand -8.86998 -25.4361
lfingers 7.12502
lthumb 17.0716 3.83385
rfemur 0 0 0
rtibia 0
rfoot 0 0
rtoes 0
lfemur -3.78117 -7.10865 -10.4754
ltibia 24.0476
lfoot -26.1494 13.0573
ltoes -55.7013
512
root -0.665427 18.6229 6.63119 2.2516 -1.04081 -4.4233
lowerback 0.540928 -0.000558643 1.26919
upperback -2.71766 0.0640513 1.39227
thorax -3.09376 0.0190563 0.717144
lowerneck -10.6396 -0.501551 0.899269
upperneck 28.0348 -1.1151 0.627659
head 10.7526 -0.347138 -0.0667864
rclavicle -1.06226e-014 4.57205e-015
rhumerus -53.7453 -5.11084 -83.1777
rradius 44.5005
rwrist -3.81648
rhand -7.94299 -42.8151
rfingers 7.12502
rthumb 17.9637 -72.0055
lclavicle -1.06226e-014 4.57205e-015
lhumerus -44.4452 1.67506 88.9367
lradius 38.6273
lwrist -10.0782
lhand -8.79482 -25.4977
lfingers 7.12502
lthumb 17.1439 3.76598
rfemur 0 0 0
rtibia 0
rfoot 0 0
rtoes 0
lfemur -3.80985 -7.1645 -10.4571
ltibia 24.0463
lfoot -26.175 13.0938
ltoes -55.6421
513
root -0.6693 18.6232 6.61671 2.24964 -1.13949 -4.49564
lowerback 0.569608 -0.0130523 1.30694
upperback -2.69523 0.049163 1.42142
thorax -3.08681 0.0111122 0.726404
lowerneck -10.6524 -0.474451 1.03876
upperneck 27.9531 -1.06053 0.462338
head 10.7226 -0.327968 -0.143563
rclavicle -4.79568e-015 -7.95139e-016
rhumerus -53.5998 -5.00083 -83.2163
rradius 44.6684
rwrist -3.91725
rhand -7.78645 -42.7412
rfingers 7.12502
rthumb 18.1143 -71.9177
lclavicle -4.79568e-015 -7.95139e-016
lhumerus -44.2975 1.84909 88.6272
lradius 38.4787
lwrist -10.2881
lhand -8.76638 -25.5517
lfingers 7.12502
lthumb 17.1713 3.70956
rfemur 0 0 0
rtibia 0
rfoot 0 0
rtoes 0
lfemur -3.82568 -7.18989 -10.3656
ltibia 24.0423
lfoot -26.2106 13.0901
ltoes -55.4647
514
root -0.671906 18.623 6.60357 2.23428 -1.28968 -4.56396
lowerback 0.603594 -0.00234456 1.33442
upperback -2.67888 0.0657198 1.46686
thorax -3.08927 0.0193053 0.757176
lowerneck -10.672 -0.457435 1.02465
upperneck 27.9195 -1.02596 0.435741
head 10.7138 -0.317195 -0.146527
rclavicle -3.03147e-015 3.12092e-014
rhumerus -53.4049 -4.91559 -83.1996
rradius 44.8088
rwrist -4.02066
rhand -7.68533 -42.7204
rfingers 7.12502
rthumb 18.2116 -71.8878
lclavicle -3.03147e-015 3.12092e-014
lhumerus -44.2116 1.99066 88.3812
lradius 38.4083
lwrist -10.4509
lhand -8.75045 -25.5948
lfingers 7.12502
lthumb 17.1866 3.6651
rfemur 0 0 0
rtibia 0
rfoot 0 0
rtoes 0
lfemur -3.79714 -7.19495 -10.2992
ltibia 24.0299
lfoot -26.3164 13.124
ltoes -55.2617
515
root -0.674273 18.6235 6.59044 2.24067 -1.4344 -4.55923
lowerback 0.653091 0.0187163 1.30894
upperback -2.69507 0.09511 1.48066
thorax -3.13409 0.034634 0.784766
lowerneck -10.6877 -0.445342 0.915911
upperneck 27.9214 -1.01036 0.525756
head 10.7188 -0.310888 -0.0936445
rclavicle -5.05658e-015 2.76311e-014
rhumerus -53.1902 -4.87124 -83.157
rradius 44.9324
rwrist -4.07491
rhand -7.66086 -42.7488
rfingers 7.12502
rthumb 18.2351 -71.9141
lclavicle -5.05658e-015 2.76311e-014
lhumerus -44.1817 2.10479 88.1601
lradius 38.3988
lwrist -10.524
lhand -8.72292 -25.5519
lfingers 7.12502
lthumb 17.2131 3.70568
rfemur 0 0 0
rtibia 0
rfoot 0 0
rtoes 0
lfemur -3.79172 -7.14334 -10.3079
ltibia 24.0104
lfoot -26.3621 13.1471
ltoes -55.203
516
root -0.678492 18.6248 6.57632 2.24358 -1.55895 -4.58945
lowerback 0.702512 0.0323532 1.30973
upperback -2.70065 0.114891 1.49142
thorax -3.16788 0.0445141 0.794764
lowerneck -10.6981 -0.430897 0.924591
upperneck 27.8883 -0.985653 0.504161
head 10.7083 -0.301615 -0.0999047
rclavicle -2.33572e-015 5.96354e-015
rhumerus -52.9431 -4.85421 -83.1185
rradius 45.0519
rwrist -4.10712
rhand -7.64134 -42.7778
rfingers 7.12502
rthumb 18.2539 -71.9414
lclavicle -2.33572e-015 5.96354e-015
lhumerus -44.1123 2.24708 87.9233
lradius 38.3576
lwrist -10.5615
lhand -8.75519 -25.4581
lfingers 7.12502
lthumb 17.1821 3.80227
rfemur 0 0 0
rtibia 0
rfoot 0 0
rtoes 0
lfemur -3.79276 -7.06478 -10.2597
ltibia 23.9748
lfoot -26.3103 13.1696
ltoes -55.2065
517
root -0.684152 18.6261 6.56217 2.20504 -1.69602 -4.64527
lowerback 0.762629 0.0689175 1.3241
upperback -2.67285 0.165365 1.50778
thorax -3.17337 0.0695674 0.801724
lowerneck -10.8053 -0.429268 0.934752
upperneck 27.8989 -0.983768 0.491318
head 10.7335 -0.300872 -0.106431
rclavicle -7.78987e-015 3.00165e-014
rhumerus -52.6658 -4.87388 -83.0609
rradius 45.1824
rwrist -4.20489
rhand -7.59442 -42.8056
rfingers 7.12502
rthumb 18.299 -71.9648
lclavicle -7.78987e-015 3.00165e-014
lhumerus -43.9858 2.34708 87.7115
lradius 38.2951
lwrist -10.6159
lhand -8.70909 -25.4811
lfingers 7.12502
lthumb 17.2265 3.77534
rfemur 0 0 0
rtibia 0
rfoot 0 0
rtoes 0
lfemur -3.742 -7.0004 -10.1822
ltibia 23.9315
lfoot -26.2632 13.2265
ltoes -55.1902
518
root -0.688547 18.6278 6.54901 2.17003 -1.82492 -4.63441
lowerback 0.782319 0.104611 1.28359
upperback -2.63936 0.211997 1.51454
thorax -3.15023 0.0940524 0.829631
lowerneck -10.9273 -0.42783 0.86669
upperneck 27.9414 -0.985399 0.55066
head 10.7743 -0.301058 -0.0740345
rclavicle -5.72127e-015 -1.78906e-015
rhumerus -52.3404 -4.88529 -82.9839
rradius 45.2989
rwrist -4.32123
rhand -7.38999 -42.8043
rfingers 7.12502
rthumb 18.4957 -71.945
lclavicle -5.72127e-015 -1.78906e-015
lhumerus -43.865 2.40779 87.5444
lradius 38.2405
lwrist -10.7304
lhand -8.67938 -25.542
lfingers 7.12502
lthumb 17.255 3.71191
rfemur 0 0 0
rtibia 0
rfoot 0 0
rtoes 0
lfemur -3.6932 -6.97375 -10.1915
ltibia 23.8981
lfoot -26.2414 13.2999
ltoes -55.1823
519
root -0.691012 18.6289 6.53741 2.15954 -1.93254 -4.61571
lowerback 0.774153 0.118819 1.25193
upperback -2.61827 0.229932 1.52836
thorax -3.12409 0.104069 0.860907
lowerneck -10.9494 -0.423667 0.826042
upperneck 27.8922 -0.97026 0.551143
head 10.7604 -0.298706 -0.0650313
rclavicle 4.70871e-015 3.37934e-015
rhumerus -52.0193 -4.86672 -82.9178
rradius 45.4312
rwrist -4.41435
rhand -7.17596 -42.8726
rfingers 7.12502
rthumb 18.7016 -71.9936
lclavicle 4.70871e-015 3.37934e-015
lhumerus -43.766 2.52029 87.4156
lradius 38.1844
lwrist -10.8485
lhand -8.76311 -25.5734
lfingers 7.12502
lthumb 17.1745 3.68756
rfemur 0 0 0
rtibia 0
rfoot 0 0
rtoes 0
lfemur -3.65784 -7.05968 -10.2337
ltibia 23.8625
lfoot -26.2787 13.4395
ltoes -55.2145
